<svg aria-hidden="true" style="position: absolute; width: 0; height: 0; overflow: hidden;" version="1.1"
  xmlns="http://www.w3.org/2000/svg" xmlns:xlink="http://www.w3.org/1999/xlink">
  <defs>
    <symbol id="close" viewBox="0 0 32 32">
      <path stroke-linejoin="round" stroke-linecap="round" stroke-miterlimit="4" stroke-width="2.6667"
        d="M16 16l-6.667-6.667M16 16l6.667 6.667M16 16l6.667-6.667M16 16l-6.667 6.667"></path>
    </symbol>
    <symbol id="burger-menu" viewBox="0 0 32 32">
      <path
        d="M4.667 6.667c-0.354 0-0.693 0.14-0.943 0.391s-0.391 0.589-0.391 0.943c0 0.354 0.14 0.693 0.391 0.943s0.589 0.391 0.943 0.391h22.667c0.354 0 0.693-0.14 0.943-0.391s0.391-0.589 0.391-0.943-0.14-0.693-0.391-0.943c-0.25-0.25-0.589-0.391-0.943-0.391h-22.667zM3.333 16c0-0.354 0.14-0.693 0.391-0.943s0.589-0.391 0.943-0.391h22.667c0.354 0 0.693 0.14 0.943 0.391s0.391 0.589 0.391 0.943-0.14 0.693-0.391 0.943c-0.25 0.25-0.589 0.391-0.943 0.391h-22.667c-0.354 0-0.693-0.14-0.943-0.391s-0.391-0.589-0.391-0.943zM3.333 24.001c0-0.354 0.14-0.693 0.391-0.943s0.589-0.391 0.943-0.391h22.667c0.354 0 0.693 0.14 0.943 0.391s0.391 0.589 0.391 0.943c0 0.354-0.14 0.693-0.391 0.943s-0.589 0.39-0.943 0.39h-22.667c-0.354 0-0.693-0.14-0.943-0.39s-0.391-0.589-0.391-0.943z">
      </path>
    </symbol>
    <symbol id="how-to-play-1" viewBox="0 0 32 32">
      <path
        d="M11.249 12.667v6.667c0 0.368 0.304 0.667 0.679 0.667s0.679-0.299 0.679-0.667v-6.667c0-0.368 0.304-0.667 0.679-0.667s0.679-0.299 0.679-0.667-0.304-0.667-0.679-0.667c-1.123 0-2.036 0.897-2.036 2zM22.788 0h-10.861c-0.375 0-0.679 0.299-0.679 0.667v1.333c0 0.368 0.304 0.667 0.679 0.667h0.679v1.333h-0.679c-0.375 0-0.679 0.299-0.679 0.667v3.401c-1.546 0.309-2.715 1.657-2.715 3.265v20c0 0.368 0.304 0.667 0.679 0.667h10.861c0.375 0 0.679-0.299 0.679-0.667v-20c0-1.609-1.169-2.956-2.715-3.265v-3.401c0-0.368-0.304-0.667-0.679-0.667h-0.679v-1.333h6.109c0.375 0 0.679-0.299 0.679-0.667v-1.333c0-0.368-0.304-0.667-0.679-0.667zM12.606 5.333h0.679c0.375 0 0.679-0.299 0.679-0.667v-2.667c0-0.368-0.304-0.667-0.679-0.667h2.715c-0.375 0-0.679 0.299-0.679 0.667v2.667c0 0.368 0.304 0.667 0.679 0.667h0.679v2.667h-4.073v-2.667zM17.358 9.333c1.123 0 2.036 0.897 2.036 2v19.333h-9.503v-19.333c0-1.103 0.914-2 2.036-2h5.43z">
      </path>
    </symbol>
    <symbol id="how-to-play-2" viewBox="0 0 32 32">
      <path
        d="M16 0c3.49 0 6.667 1.274 9.103 3.4 0.176 0.154 0.25 0.396 0.19 0.623l-0.637 2.411 2.208-0.623c0.255-0.072 0.527 0.030 0.674 0.251 1.479 2.227 2.329 4.782 2.329 7.653 0 0.009 0 0.019 0 0.028-0.209 4.507-2.388 10.231-5.929 14.098-0.155 0.17-0.392 0.238-0.613 0.176l-0.779-0.217 0.216 0.779c0.063 0.227-0.009 0.47-0.184 0.626-1.902 1.696-4.165 2.795-6.679 2.795-2.417-0-4.676-1.102-6.666-2.785-0.184-0.155-0.26-0.404-0.196-0.636l0.215-0.779-0.778 0.217c-0.221 0.062-0.458-0.006-0.613-0.176-3.435-3.761-5.726-9.594-5.726-14.126 0-2.767 0.848-5.424 2.329-7.653l0.061-0.078c0.154-0.166 0.391-0.236 0.613-0.173l2.207 0.623-0.636-2.411c-0.060-0.227 0.014-0.469 0.19-0.623 2.436-2.126 5.613-3.4 9.103-3.4zM15.899 22.341c0.901 0 1.746 0.157 2.389 0.437 0.32 0.139 0.619 0.321 0.845 0.554 0.229 0.236 0.412 0.556 0.412 0.945s-0.183 0.709-0.412 0.945c-0.227 0.233-0.525 0.415-0.845 0.554-0.643 0.279-1.488 0.437-2.389 0.437s-1.747-0.157-2.39-0.437c-0.32-0.139-0.619-0.321-0.845-0.554-0.201-0.206-0.366-0.478-0.404-0.802l-0.008-0.142 0.008-0.142c0.038-0.325 0.204-0.596 0.404-0.802 0.227-0.233 0.525-0.415 0.845-0.554 0.643-0.28 1.488-0.437 2.39-0.437zM15.899 23.571c-0.775 0-1.448 0.138-1.904 0.337-0.229 0.1-0.376 0.203-0.456 0.285-0.078 0.080-0.064 0.107-0.064 0.083s-0.014 0.003 0.064 0.083c0.081 0.083 0.227 0.186 0.456 0.285 0.456 0.198 1.129 0.337 1.904 0.337s1.447-0.138 1.903-0.337c0.229-0.1 0.376-0.203 0.456-0.285 0.042-0.043 0.057-0.070 0.063-0.083-0.005-0.013-0.021-0.040-0.063-0.083-0.081-0.083-0.227-0.186-0.456-0.285-0.456-0.198-1.128-0.337-1.903-0.337zM13.162 15.543c0-0.262-0.178-0.602-0.683-0.909-0.494-0.3-1.215-0.507-2.044-0.507s-1.55 0.207-2.044 0.507c-0.505 0.307-0.683 0.647-0.683 0.909s0.178 0.602 0.683 0.909c0.494 0.3 1.215 0.506 2.044 0.506s1.551-0.206 2.044-0.506c0.505-0.307 0.683-0.647 0.683-0.909zM24.191 15.543c0-0.262-0.178-0.602-0.683-0.909-0.494-0.3-1.215-0.507-2.044-0.507s-1.55 0.207-2.044 0.507c-0.505 0.307-0.683 0.647-0.683 0.909s0.178 0.602 0.683 0.909c0.494 0.3 1.215 0.506 2.044 0.506s1.55-0.206 2.044-0.506c0.505-0.307 0.683-0.647 0.683-0.909zM14.386 15.543c-0 0.859-0.57 1.534-1.274 1.962-0.715 0.435-1.663 0.684-2.678 0.684s-1.963-0.249-2.678-0.684c-0.703-0.428-1.273-1.103-1.274-1.962s0.57-1.535 1.274-1.963c0.715-0.435 1.663-0.683 2.678-0.683s1.963 0.248 2.678 0.683c0.703 0.428 1.274 1.104 1.274 1.963zM25.415 15.543c0 0.859-0.57 1.534-1.273 1.962-0.715 0.435-1.663 0.684-2.678 0.684s-1.963-0.249-2.678-0.684c-0.703-0.428-1.273-1.103-1.273-1.962s0.57-1.535 1.273-1.963c0.715-0.435 1.663-0.683 2.678-0.683s1.963 0.248 2.678 0.683c0.703 0.428 1.273 1.104 1.273 1.963zM3.356 13.715c0 4.093 2.052 9.457 5.156 13.014l1.456-0.406c0.213-0.059 0.441 0.001 0.596 0.158s0.215 0.386 0.156 0.6l-0.399 1.439c1.768 1.417 3.652 2.249 5.577 2.249 2.024 0 3.909-0.835 5.58-2.239l-0.401-1.449c-0.059-0.214 0.001-0.443 0.156-0.6s0.384-0.218 0.596-0.158l1.455 0.406c3.193-3.641 5.165-8.917 5.358-13.037-0.004-2.445-0.682-4.633-1.883-6.574l-2.803 0.791c-0.211 0.060-0.439 0.001-0.595-0.154s-0.218-0.383-0.161-0.596l0.81-3.074c-2.178-1.789-4.959-2.856-8.010-2.856s-5.832 1.067-8.011 2.856l0.811 3.074c0.056 0.213-0.005 0.441-0.161 0.596s-0.384 0.214-0.595 0.154l-2.803-0.791c-1.204 1.955-1.884 4.235-1.884 6.597z">
      </path>
    </symbol>
    <symbol id="how-to-play-3" viewBox="0 0 32 32">
      <path
        d="M7.072 12.212c0.135 0.202 0.355 0.31 0.58 0.31 0.134 0 0.267-0.038 0.384-0.117l4.174-2.783c0.32-0.213 0.406-0.644 0.193-0.964-0.213-0.321-0.646-0.406-0.964-0.193l-4.174 2.783c-0.32 0.213-0.406 0.644-0.193 0.964zM11.467 19.577l-3.478 2.087c-0.328 0.198-0.436 0.625-0.238 0.954 0.131 0.218 0.36 0.338 0.597 0.338 0.122 0 0.246-0.032 0.358-0.1l3.478-2.087c0.328-0.198 0.435-0.626 0.238-0.954s-0.625-0.437-0.954-0.238zM11.457 14.019l-5.565 3.478c-0.326 0.203-0.424 0.633-0.221 0.959 0.131 0.211 0.358 0.327 0.59 0.327 0.127 0 0.255-0.033 0.369-0.106l5.565-3.478c0.326-0.203 0.426-0.632 0.221-0.959s-0.633-0.426-0.959-0.221zM16 0c-8.822 0-16 7.178-16 16s7.178 16 16 16c8.822 0 16-7.178 16-16s-7.178-16-16-16zM16 30.609c-8.056 0-14.609-6.553-14.609-14.609s6.553-14.609 14.609-14.609c8.056 0 14.609 6.553 14.609 14.609s-6.553 14.609-14.609 14.609zM17.469 2.866c-0.206-0.021-0.394 0.042-0.541 0.174s-0.232 0.321-0.232 0.519v24.881c0 0.199 0.085 0.387 0.232 0.519 0.128 0.114 0.292 0.177 0.463 0.177 0.025 0 0.052-0.001 0.078-0.007 6.699-0.742 11.75-6.387 11.75-13.131s-5.052-12.39-11.75-13.131zM18.087 27.637v-23.275c5.604 0.993 9.739 5.864 9.739 11.637s-4.135 10.645-9.739 11.638zM14.532 2.869c-6.699 0.742-11.75 6.387-11.75 13.131s5.052 12.39 11.75 13.131c0.025 0.003 0.052 0.004 0.077 0.004 0.171 0 0.335-0.063 0.465-0.174 0.148-0.132 0.232-0.321 0.232-0.519v-24.881c0-0.199-0.085-0.387-0.232-0.519-0.149-0.134-0.341-0.195-0.541-0.174zM13.913 27.638c-5.604-0.993-9.739-5.866-9.739-11.638s4.135-10.645 9.739-11.638v23.277z">
      </path>
    </symbol>
    <symbol id="how-to-play-4" viewBox="0 0 32 32">
      <path
        d="M30.38 14.987c0-0.365-0.089-0.584-0.18-0.722-0.095-0.142-0.227-0.247-0.384-0.326-0.16-0.080-0.33-0.124-0.467-0.147-0.066-0.011-0.12-0.017-0.154-0.019-0.017-0.001-0.028-0.002-0.034-0.002h-18.224c-0.365 0-0.584 0.089-0.722 0.18-0.142 0.095-0.247 0.227-0.326 0.384-0.080 0.16-0.124 0.33-0.147 0.467-0.011 0.066-0.017 0.12-0.019 0.154-0.001 0.017-0.002 0.028-0.002 0.034v14.173c0 0.365 0.089 0.584 0.18 0.721 0.095 0.142 0.227 0.247 0.384 0.326 0.16 0.080 0.331 0.124 0.467 0.147 0.066 0.011 0.12 0.017 0.154 0.019 0.017 0.001 0.028 0.002 0.034 0.002h18.224c0.365 0 0.584-0.089 0.721-0.18 0.142-0.095 0.247-0.227 0.326-0.384 0.080-0.16 0.124-0.33 0.147-0.467 0.011-0.066 0.017-0.12 0.019-0.154 0.001-0.013 0.002-0.023 0.002-0.030v-14.177zM32 29.184c-0 0.008-0.001 0.018-0.001 0.031-0.001 0.024-0.003 0.056-0.005 0.095-0.006 0.077-0.015 0.182-0.036 0.305-0.040 0.243-0.123 0.579-0.296 0.925-0.175 0.349-0.45 0.724-0.877 1.009-0.432 0.288-0.972 0.452-1.62 0.452h-18.228v-0.81c0 0.81 0 0.81 0 0.81h-0.019c-0.008-0-0.019-0.001-0.031-0.001-0.024-0.001-0.056-0.003-0.095-0.005-0.077-0.006-0.182-0.015-0.305-0.036-0.243-0.040-0.579-0.123-0.925-0.296-0.349-0.175-0.724-0.45-1.008-0.877-0.288-0.432-0.453-0.972-0.453-1.62v-14.177h0.81c-0.81 0-0.81 0-0.81 0v-0.019c0-0.008 0.001-0.018 0.001-0.030 0.001-0.024 0.003-0.057 0.005-0.095 0.005-0.077 0.015-0.182 0.036-0.305 0.040-0.243 0.123-0.579 0.296-0.925 0.175-0.349 0.449-0.724 0.877-1.008 0.432-0.288 0.972-0.453 1.62-0.453h3.24v-4.253c0-1.665-0.661-3.262-1.839-4.44s-2.775-1.839-4.44-1.839-3.262 0.661-4.44 1.839c-1.177 1.177-1.839 2.775-1.839 4.44v5.063c0 0.447-0.363 0.81-0.81 0.81s-0.81-0.363-0.81-0.81v-5.063c0-2.095 0.832-4.104 2.313-5.585s3.491-2.313 5.585-2.313c2.095 0 4.104 0.832 5.585 2.313s2.313 3.491 2.313 5.585v4.253h13.386c0.008 0 0.018 0.001 0.031 0.001 0.024 0.001 0.056 0.003 0.095 0.005 0.077 0.006 0.182 0.015 0.305 0.036 0.243 0.040 0.579 0.124 0.925 0.296 0.349 0.175 0.724 0.45 1.009 0.877 0.288 0.432 0.452 0.972 0.452 1.62v14.196z">
      </path>
      <path
        d="M22.279 22.076c0-0.591-0.235-1.157-0.653-1.575s-0.984-0.653-1.575-0.653c-0.591 0-1.157 0.235-1.575 0.653s-0.653 0.984-0.653 1.575c0 0.591 0.235 1.157 0.653 1.575s0.984 0.653 1.575 0.653c0.591 0 1.157-0.235 1.575-0.653s0.653-0.984 0.653-1.575zM23.899 22.076c0 1.021-0.405 2-1.127 2.721s-1.701 1.127-2.721 1.127-2-0.405-2.722-1.127c-0.722-0.722-1.127-1.701-1.127-2.721s0.405-2 1.127-2.721c0.722-0.722 1.701-1.127 2.722-1.127s2 0.405 2.721 1.127c0.722 0.722 1.127 1.701 1.127 2.721z">
      </path>
    </symbol>
    <symbol id="how-to-play-5" viewBox="0 0 32 32">
      <path
        d="M27.534 30.167v-1.867h-1.867c-0.442 0-0.8-0.358-0.8-0.8s0.358-0.8 0.8-0.8h1.867v-1.867c0-0.442 0.358-0.8 0.8-0.8s0.8 0.358 0.8 0.8v1.867h1.867c0.442 0 0.8 0.358 0.8 0.8s-0.358 0.8-0.8 0.8h-1.867v1.867c0 0.442-0.358 0.8-0.8 0.8s-0.8-0.358-0.8-0.8zM14.338 1.033c0.414 0.002 0.753 0.318 0.793 0.721l0.004 0.082c-0.016 4.067 0.965 7.113 2.945 9.171 1.978 2.056 5.084 3.258 9.606 3.359 0.439 0.010 0.788 0.372 0.782 0.81s-0.364 0.791-0.803 0.79c-4.168-0.016-7.156 1.090-9.16 3.134-2.015 2.054-3.158 5.177-3.371 9.439-0.022 0.432-0.382 0.769-0.815 0.76s-0.78-0.359-0.784-0.792c-0.041-4.024-0.961-7.131-2.9-9.23-1.926-2.085-4.989-3.317-9.632-3.311-0.44 0.001-0.798-0.354-0.801-0.794s0.349-0.8 0.789-0.806c4.163-0.058 7.258-1.091 9.318-3.080 2.053-1.984 3.211-5.047 3.227-9.456 0.002-0.442 0.361-0.799 0.803-0.797zM14.32 7.617c-0.616 1.936-1.581 3.545-2.901 4.82-1.272 1.229-2.838 2.114-4.66 2.691 2.079 0.635 3.757 1.663 5.052 3.066 1.24 1.343 2.089 2.989 2.62 4.877 0.633-2.023 1.6-3.731 2.931-5.089 1.27-1.295 2.837-2.237 4.693-2.834-2.087-0.638-3.796-1.647-5.127-3.029-1.197-1.243-2.054-2.755-2.607-4.501zM24.549 7.167v-1.867h-1.867c-0.442-0-0.8-0.358-0.8-0.8s0.358-0.8 0.8-0.8h1.867v-1.867c0-0.442 0.358-0.8 0.8-0.8s0.8 0.358 0.8 0.8v1.867h1.867c0.442 0 0.8 0.358 0.8 0.8s-0.358 0.8-0.8 0.8h-1.867v1.867c0 0.442-0.358 0.8-0.8 0.8s-0.8-0.358-0.8-0.8z">
      </path>
    </symbol>
    <symbol id="features-spa-stone" viewBox="0 0 36 32">
      <path
        d="M32.955 23.209c0.17-0.123 0.335-0.251 0.486-0.399 0.882-0.873 1.31-2.104 1.31-3.764 0-2.673-1.389-4.005-3.51-4.671 0.449-0.207 0.847-0.452 1.159-0.771 0.565-0.578 0.844-1.313 0.83-2.188-0.020-1.254-1.284-2.207-3.154-2.843 0.351-0.155 0.659-0.35 0.91-0.602 0.483-0.48 0.727-1.114 0.727-1.876 0-2.877-3.569-6.095-8.347-6.095s-8.347 3.218-8.347 6.095c0 0.762 0.244 1.393 0.725 1.874 0.252 0.251 0.566 0.439 0.917 0.594-1.417 0.48-2.486 1.14-2.932 1.973-0.827-0.856-1.982-1.394-3.263-1.394-2.202 0-4.043 1.579-4.462 3.668-2.011-0.68-4.292 0.133-5.394 2.046-1.1 1.914-0.66 4.305 0.932 5.713-1.593 1.408-2.037 3.799-0.935 5.716 0.844 1.466 2.377 2.286 3.952 2.286 0.486 0 0.968-0.108 1.442-0.27 0.408 2.103 2.252 3.698 4.465 3.698 1.509 0 2.839-0.75 3.668-1.889 2.191 1.173 5.898 1.889 9.991 1.889 5.22 0 9.685-1.117 11.373-2.845 0.522-0.535 0.78-1.122 0.768-1.74-0.052-2.534-1.343-3.688-3.311-4.206zM33.231 19.048c0 1.231-0.281 2.108-0.858 2.679-0.689 0.683-1.85 0.968-3.276 1.085-0.809-0.009-1.653 0.005-2.521 0.018-0.718 0.012-1.469 0.021-2.228 0.034-1.194-0.009-2.425-0.020-3.613-0.154-0.109-0.375-0.276-0.728-0.478-1.065-0.035-0.059-0.070-0.119-0.108-0.177-0.214-0.323-0.457-0.629-0.756-0.895l-0.002-0.002c0.003-0.003 0.006-0.006 0.009-0.009 0.006-0.006 0.011-0.012 0.018-0.018 0.199-0.178 0.376-0.378 0.54-0.588 0.038-0.049 0.073-0.101 0.109-0.151 0.129-0.181 0.246-0.37 0.348-0.57 0.024-0.047 0.052-0.093 0.074-0.142 0.115-0.247 0.217-0.501 0.288-0.77 0.073-0.274 0.114-0.552 0.135-0.827 0.005-0.056 0-0.113 0.003-0.168 0.009-0.221 0.006-0.44-0.017-0.658-0.008-0.081-0.023-0.162-0.035-0.242-0.030-0.197-0.074-0.389-0.131-0.581-0.026-0.087-0.052-0.172-0.082-0.258-0.023-0.063-0.035-0.128-0.061-0.189 0.903-0.11 1.832-0.165 2.774-0.165 6.3 0.002 9.864 0.177 9.864 3.811zM16.537 6.095c0-2.071 3.046-4.571 6.829-4.571s6.829 2.501 6.829 4.571c0 0.462-0.159 0.673-0.279 0.794-0.756 0.754-3.082 0.741-5.544 0.731l-1.006-0.002-1.006 0.003c-2.46 0.015-4.788 0.024-5.544-0.731-0.12-0.12-0.279-0.331-0.279-0.795zM23.367 9.143c5.377 0 8.335 1.518 8.347 2.298 0.008 0.463-0.118 0.812-0.395 1.094-1.097 1.122-4.413 1.176-7.474 1.178-0.159 0-0.317 0-0.476 0-0.006 0-0.012 0-0.018 0-1.609-0.002-3.176-0.148-4.55-0.428-0.020-0.012-0.042-0.017-0.062-0.027-0.692-0.421-1.475-0.654-2.281-0.669-0.991-0.431-1.437-0.887-1.437-1.16 0-0.777 2.946-2.286 8.347-2.286zM13.719 17.181c0.080-0.14 0.159-0.279 0.237-0.419 0.052-0.095 0.102-0.187 0.15-0.28 0.076-0.145 0.146-0.288 0.215-0.431 0.038-0.079 0.079-0.158 0.114-0.238 0.099-0.216 0.188-0.43 0.265-0.639 0.014-0.037 0.023-0.070 0.035-0.107 0.065-0.184 0.12-0.363 0.164-0.536 0.005-0.018 0.012-0.038 0.017-0.056 0.443-0.244 0.92-0.352 1.395-0.363 0.003 0 0.006 0.002 0.009 0.002 0.636-0.021 1.244 0.168 1.762 0.52h0.002c0.367 0.25 0.692 0.574 0.927 0.986 0.731 1.272 0.442 2.86-0.61 3.8-0.15 0.134-0.316 0.255-0.498 0.36-0.015 0.009-0.035 0.014-0.050 0.023-0.055 0.029-0.127 0.052-0.193 0.078-0.182 0.069-0.392 0.127-0.633 0.169-0.003 0-0.006 0.002-0.009 0.002-0.524 0.093-1.166 0.13-1.845 0.131-0.015 0-0.032 0-0.049 0-0.326 0-0.662-0.008-0.996-0.023-0.012 0-0.023-0.002-0.035-0.002-0.788-0.035-1.557-0.102-2.222-0.175 0.021-0.029 0.046-0.063 0.067-0.093 0.091-0.123 0.184-0.253 0.281-0.39 0.043-0.061 0.086-0.122 0.131-0.186 0.089-0.128 0.179-0.258 0.272-0.393 0.049-0.072 0.097-0.142 0.146-0.215 0.109-0.163 0.219-0.329 0.328-0.5 0.030-0.047 0.059-0.091 0.089-0.139 0.132-0.207 0.261-0.419 0.388-0.632 0.050-0.085 0.097-0.169 0.146-0.253zM10.465 10.665c1.674 0 3.035 1.367 3.035 3.048 0 0.076-0.024 0.172-0.038 0.259-0.032 0.19-0.085 0.396-0.167 0.623-0.003 0.009-0.006 0.017-0.009 0.026-0.179 0.494-0.463 1.061-0.795 1.643-0.023 0.040-0.049 0.081-0.071 0.122-0.146 0.25-0.297 0.503-0.455 0.753-0.026 0.041-0.053 0.084-0.079 0.125-0.171 0.27-0.348 0.536-0.522 0.792-0.005 0.006-0.009 0.012-0.012 0.018-0.24 0.354-0.47 0.675-0.691 0.977-0.343-0.786-0.829-1.825-1.389-2.827-0.005-0.009-0.011-0.018-0.017-0.027-0.123-0.218-0.249-0.433-0.378-0.643-0.029-0.046-0.056-0.091-0.085-0.137-0.118-0.191-0.24-0.373-0.363-0.552-0.024-0.035-0.047-0.070-0.071-0.104-0.146-0.207-0.294-0.402-0.443-0.584-0.014-0.017-0.027-0.030-0.041-0.046-0.137-0.162-0.273-0.309-0.411-0.443-0.012-0.012-0.023-0.028-0.035-0.038 0.035-1.65 1.384-2.984 3.037-2.985zM1.924 15.619c0.562-0.978 1.583-1.524 2.633-1.524 0.514 0 1.037 0.131 1.513 0.408 0.064 0.037 0.132 0.104 0.199 0.157 1.018 0.838 2.242 3.291 2.987 4.984-0.032-0.003-0.071-0.008-0.105-0.011-0.158-0.017-0.323-0.035-0.498-0.052-0.062-0.006-0.123-0.011-0.187-0.017-0.182-0.017-0.37-0.032-0.566-0.047-0.052-0.005-0.102-0.008-0.155-0.012-0.51-0.036-1.047-0.062-1.589-0.068-0.046 0-0.090 0-0.134 0-0.217-0.002-0.433 0-0.646 0.006-0.070 0.002-0.14 0.005-0.209 0.006-0.208 0.008-0.411 0.020-0.61 0.037-0.052 0.005-0.105 0.008-0.156 0.012-0.247 0.023-0.487 0.053-0.715 0.091-0.026 0.005-0.050 0.011-0.076 0.015-0.202 0.037-0.39 0.081-0.569 0.131-0.017 0.004-0.038 0.008-0.056 0.012-1.411-0.852-1.888-2.693-1.061-4.13zM7.237 23.925c-0.093 0.159-0.182 0.319-0.269 0.479-0.044 0.079-0.085 0.158-0.127 0.238-0.087 0.165-0.167 0.326-0.244 0.489-0.030 0.064-0.062 0.127-0.091 0.189-0.102 0.223-0.193 0.442-0.273 0.655-0.011 0.029-0.018 0.056-0.029 0.085-0.068 0.191-0.124 0.373-0.168 0.553-0.003 0.017-0.012 0.037-0.017 0.053-1.445 0.8-3.267 0.293-4.095-1.144-0.836-1.455-0.338-3.323 1.111-4.163 0.068-0.040 0.168-0.067 0.255-0.101 0.173-0.064 0.369-0.117 0.592-0.159 0.021-0.005 0.041-0.009 0.062-0.012 0.61-0.105 1.378-0.133 2.178-0.12 0.329 0.005 0.665 0.017 1.005 0.034 0.212 0.012 0.425 0.023 0.633 0.038 0.325 0.024 0.642 0.052 0.953 0.082 0.123 0.012 0.234 0.024 0.349 0.037-0.062 0.085-0.132 0.184-0.199 0.276-0.038 0.053-0.074 0.104-0.114 0.159-0.065 0.091-0.13 0.184-0.197 0.282-0.073 0.105-0.147 0.212-0.222 0.322-0.056 0.082-0.109 0.162-0.165 0.245-0.111 0.166-0.222 0.335-0.334 0.509-0.026 0.041-0.052 0.079-0.077 0.12-0.135 0.213-0.269 0.431-0.399 0.652-0.041 0.069-0.079 0.134-0.117 0.203zM13.19 28.742c-0.005 0.008-0.003 0.017-0.006 0.024-0.496 1.009-1.522 1.71-2.717 1.71-1.674 0-3.035-1.367-3.035-3.048 0-0.075 0.023-0.171 0.036-0.258 0.032-0.192 0.087-0.401 0.168-0.631 0.002-0.006 0.003-0.011 0.005-0.017 0.181-0.5 0.469-1.073 0.806-1.663 0.012-0.020 0.024-0.041 0.036-0.062 0.158-0.274 0.326-0.552 0.499-0.826 0.014-0.020 0.026-0.041 0.039-0.061 0.42-0.661 0.859-1.291 1.251-1.827 0.171 0.392 0.379 0.849 0.612 1.332l0.003 0.006c0.231 0.477 0.487 0.977 0.762 1.47 0.017 0.030 0.033 0.060 0.052 0.088 0.111 0.197 0.225 0.389 0.34 0.579 0.036 0.059 0.073 0.119 0.109 0.177 0.111 0.175 0.222 0.346 0.335 0.51 0.030 0.044 0.061 0.090 0.091 0.134 0.144 0.204 0.29 0.398 0.437 0.576 0.015 0.018 0.030 0.034 0.046 0.052 0.135 0.16 0.27 0.306 0.407 0.439 0.009 0.009 0.018 0.021 0.027 0.029-0.006 0.43-0.105 0.855-0.303 1.265zM11.679 21.496c0.021 0.003 0.049 0.004 0.070 0.008 0.168 0.018 0.344 0.037 0.533 0.055 0.053 0.005 0.106 0.011 0.159 0.015 0.188 0.017 0.382 0.034 0.584 0.049 0.065 0.005 0.127 0.009 0.193 0.014 0.19 0.014 0.384 0.024 0.581 0.034 0.086 0.005 0.173 0.009 0.26 0.012 0.181 0.008 0.361 0.012 0.543 0.015 0.103 0.002 0.203 0.005 0.307 0.006 0.049 0 0.099 0.003 0.147 0.003 0.071 0 0.138-0.005 0.209-0.006 0.222-0.002 0.439-0.008 0.654-0.018 0.109-0.004 0.215-0.012 0.323-0.020 0.222-0.015 0.432-0.038 0.64-0.066 0.091-0.012 0.185-0.021 0.273-0.035 0.246-0.040 0.476-0.088 0.69-0.148 0.030-0.008 0.068-0.012 0.097-0.021 0.367 0.223 0.681 0.517 0.92 0.867 0.004 0.006 0.008 0.014 0.012 0.020 0.244 0.364 0.411 0.785 0.484 1.239l0.002 0.005c0.018 0.116 0.038 0.23 0.044 0.349 0 0.008-0.005 0.015-0.003 0.024 0.009 0.27-0.023 0.533-0.079 0.788-0.009 0.037-0.015 0.075-0.026 0.111-0.067 0.256-0.159 0.503-0.291 0.731-0.017 0.029-0.041 0.053-0.059 0.082-0.091 0.146-0.187 0.29-0.297 0.414-0.012 0.014-0.029 0.024-0.041 0.038-0.652 0.712-1.601 1.060-2.539 0.964-0.023-0.003-0.046 0-0.068-0.002-0.159-0.020-0.317-0.061-0.475-0.108-0.035-0.011-0.073-0.014-0.108-0.026-0.19-0.064-0.376-0.148-0.555-0.251-0.064-0.037-0.132-0.104-0.199-0.157-1.017-0.838-2.242-3.291-2.985-4.986zM34.413 28.087c-1.121 1.151-4.82 2.389-10.288 2.389-3.831 0-7.377-0.663-9.312-1.716 0.032-0.099 0.055-0.2 0.079-0.299 0.011-0.043 0.027-0.082 0.036-0.127 0.070 0.024 0.141 0.035 0.212 0.055 0.056 0.015 0.111 0.030 0.169 0.044 0.338 0.082 0.681 0.131 1.029 0.134 0.012 0 0.023 0.004 0.035 0.004 0.023 0 0.046-0.009 0.068-0.009 0.373-0.006 0.747-0.047 1.117-0.146 0.348-0.094 0.671-0.236 0.979-0.404 0.077-0.043 0.149-0.093 0.225-0.14 0.24-0.148 0.461-0.315 0.669-0.506 0.073-0.066 0.144-0.128 0.212-0.2 0.255-0.265 0.49-0.553 0.68-0.881 0.077-0.136 0.127-0.285 0.191-0.428 0.19-0.425 0.331-0.863 0.384-1.309 1.056-0.108 2.129-0.146 3.182-0.165 0.392 0.005 0.779 0.008 1.158 0.014 0.571 0.008 1.128 0.015 1.668 0.015 0.775 0 1.513-0.020 2.21-0.073 3.736 0.040 5.58 0.532 5.633 3.104 0.003 0.194-0.111 0.41-0.337 0.642zM19.381 6.048c0.187 0 0.372-0.069 0.519-0.204 0.317-0.297 1.506-1.272 3.466-1.272 0.419 0 0.759-0.341 0.759-0.762s-0.34-0.762-0.759-0.762c-2.518 0-4.084 1.288-4.504 1.682-0.305 0.288-0.32 0.769-0.035 1.077 0.149 0.162 0.352 0.241 0.554 0.241z">
      </path>
    </symbol>
    <symbol id="features-lotus" viewBox="0 0 40 32">
      <path
        d="M39.96 11.532c-0.028-0.449-0.377-0.806-0.815-0.833-4.24-0.27-8.112 0.737-11.39 2.916-0.25-5.168-2.841-10.028-7.247-13.436-0.309-0.24-0.74-0.24-1.050 0-4.397 3.401-6.986 8.252-7.243 13.412-3.271-2.161-7.132-3.156-11.36-2.893-0.44 0.027-0.789 0.385-0.815 0.833-0.341 5.739 1.486 10.823 5.286 14.705 3.62 3.697 8.51 5.762 13.564 5.762 0.37 0 0.74-0.012 1.111-0.034 0.37 0.021 0.739 0.034 1.107 0.034 5.055 0 9.946-2.065 13.565-5.762 3.801-3.882 5.627-8.968 5.286-14.705zM6.557 24.98c-3.26-3.33-4.918-7.654-4.814-12.542 4.094-0.087 7.839 1.167 10.886 3.656 0.481 0.396 0.951 0.817 1.387 1.263 0.054 0.055 0.101 0.115 0.155 0.17 0.325 0.341 0.638 0.693 0.933 1.055 0.104 0.128 0.2 0.259 0.299 0.389 0.247 0.321 0.487 0.65 0.711 0.986 0.083 0.124 0.163 0.25 0.243 0.376 0.235 0.373 0.455 0.753 0.662 1.142 0.052 0.098 0.108 0.194 0.158 0.293 0.497 0.977 0.904 1.999 1.216 3.051 0.061 0.204 0.108 0.414 0.16 0.62 0.077 0.297 0.149 0.593 0.212 0.893 0.056 0.277 0.104 0.558 0.148 0.838 0.153 0.977 0.24 1.966 0.229 2.964 0 0.029 0 0.059 0 0.087-4.652 0.059-9.231-1.813-12.585-5.24zM20.195 23.569c-0.059 0.178-0.141 0.346-0.196 0.526-0.050-0.167-0.127-0.323-0.182-0.488-0.13-0.384-0.269-0.76-0.422-1.135-0.136-0.334-0.276-0.666-0.429-0.993-0.153-0.323-0.32-0.636-0.49-0.95-0.179-0.332-0.355-0.664-0.554-0.985-0.203-0.329-0.429-0.645-0.652-0.961-0.195-0.275-0.375-0.559-0.584-0.826-0.407-0.522-0.846-1.023-1.307-1.504-0.047-0.048-0.085-0.103-0.132-0.151-0.419-0.428-0.862-0.838-1.321-1.225-0.012-0.149-0.024-0.297-0.024-0.447 0-4.702 2.209-9.19 6.082-12.413 3.874 3.223 6.082 7.712 6.082 12.413 0 0.16-0.012 0.316-0.026 0.472-0.44 0.373-0.871 0.774-1.286 1.199-0.045 0.046-0.083 0.101-0.129 0.147-0.464 0.483-0.904 0.986-1.312 1.509-0.205 0.263-0.384 0.542-0.575 0.813-0.226 0.321-0.455 0.639-0.66 0.973-0.2 0.321-0.375 0.655-0.556 0.987-0.167 0.311-0.334 0.62-0.485 0.938-0.158 0.336-0.302 0.677-0.441 1.021-0.143 0.357-0.276 0.716-0.4 1.080zM33.445 24.982c-3.356 3.425-7.951 5.255-12.587 5.24 0-0.028 0-0.057 0-0.085-0.010-1.037 0.080-2.065 0.245-3.077 0.037-0.225 0.075-0.449 0.12-0.671 0.075-0.371 0.163-0.741 0.261-1.106 0.038-0.144 0.071-0.289 0.113-0.43 0.318-1.076 0.733-2.12 1.244-3.118 0.033-0.064 0.068-0.124 0.101-0.188 0.226-0.428 0.471-0.847 0.73-1.257 0.061-0.094 0.122-0.19 0.184-0.282 0.254-0.384 0.523-0.755 0.806-1.119 0.068-0.087 0.132-0.178 0.203-0.263 0.353-0.437 0.725-0.859 1.119-1.264 0.101-0.103 0.212-0.192 0.316-0.293 0.332-0.323 0.667-0.639 1.015-0.927 3.052-2.522 6.809-3.791 10.945-3.699 0.099 4.885-1.555 9.209-4.815 12.541z">
      </path>
    </symbol>
    <symbol id="features-mirror" viewBox="0 0 29 32">
      <path
        d="M17.829 4.4v-0.4h10.286c0.379 0 0.686-0.299 0.686-0.667 0-2.637-9.419-3.333-14.4-3.333s-14.4 0.696-14.4 3.333c0 0.368 0.307 0.667 0.686 0.667h10.286v0.4c-6.389 1.519-10.971 7.152-10.971 13.6 0 7.72 6.459 14 14.4 14s14.4-6.28 14.4-14c0-6.449-4.582-12.081-10.971-13.6zM2.721 2.667c1.987-0.651 6.041-1.333 11.679-1.333 5.698 0 9.778 0.696 11.738 1.333h-23.417zM14.4 30.667c-7.184 0-13.029-5.683-13.029-12.667 0-6 4.383-11.22 10.423-12.412 0.32-0.063 0.549-0.336 0.549-0.653v-0.935h4.114v0.935c0 0.317 0.229 0.591 0.549 0.653 6.040 1.192 10.423 6.412 10.423 12.412 0 6.984-5.845 12.667-13.029 12.667zM12.827 10.863c-0.267-0.26-0.702-0.26-0.97 0l-4.8 4.667c-0.267 0.26-0.267 0.683 0 0.943 0.134 0.129 0.31 0.195 0.485 0.195s0.351-0.065 0.484-0.195l4.8-4.667c0.267-0.26 0.267-0.683 0-0.943zM20.772 19.529l-4.8 4.667c-0.267 0.26-0.267 0.683 0 0.943 0.134 0.129 0.31 0.195 0.486 0.195s0.351-0.065 0.484-0.195l4.8-4.667c0.267-0.26 0.267-0.683 0-0.943s-0.702-0.26-0.97 0zM14.4 6.667c-6.428 0-11.657 5.084-11.657 11.333s5.229 11.333 11.657 11.333c6.428 0 11.657-5.084 11.657-11.333s-5.229-11.333-11.657-11.333zM14.4 28c-5.672 0-10.286-4.485-10.286-10s4.614-10 10.286-10c5.672 0 10.286 4.485 10.286 10s-4.614 10-10.286 10zM18.998 13.529c-0.267-0.26-0.702-0.26-0.97 0l-8.229 8c-0.267 0.26-0.267 0.683 0 0.943 0.134 0.129 0.31 0.195 0.486 0.195s0.351-0.065 0.484-0.195l8.229-8c0.267-0.26 0.267-0.683 0-0.943z">
      </path>
    </symbol>
    <symbol id="features-scented-candle" viewBox="0 0 29 32">
      <path
        d="M21.432 10.54c2.457-2.144 3.901-5.272 3.901-8.54 0-0.101-0.027-0.195-0.067-0.281-0.012-0.025-0.035-0.049-0.051-0.075-0.031-0.047-0.060-0.093-0.1-0.131-1.111-1.235-6.503-1.513-11.116-1.513s-10.005 0.279-11.115 1.513c-0.041 0.037-0.071 0.084-0.101 0.131-0.015 0.025-0.037 0.048-0.051 0.075-0.040 0.087-0.067 0.18-0.067 0.281 0 3.268 1.444 6.396 3.901 8.54-4.072 3.037-6.568 8.359-6.568 14.127 0 2.384 0.427 4.708 1.268 6.905 0.099 0.257 0.347 0.428 0.623 0.428h24.219c0.276 0 0.524-0.171 0.623-0.428 0.841-2.197 1.268-4.521 1.268-6.905 0-5.767-2.496-11.089-6.568-14.127zM14 1.333c4.393 0 7.641 0.328 9.183 0.664-0.045 0.011-0.079 0.020-0.128 0.031-0.077 0.016-0.165 0.032-0.251 0.048-0.177 0.033-0.372 0.065-0.583 0.097-0.105 0.016-0.209 0.032-0.324 0.048-0.256 0.036-0.537 0.069-0.832 0.103-0.087 0.009-0.164 0.020-0.255 0.029-0.387 0.041-0.807 0.079-1.253 0.113-0.136 0.011-0.285 0.020-0.425 0.029-0.335 0.024-0.681 0.045-1.045 0.064-0.18 0.009-0.365 0.019-0.553 0.027-0.371 0.016-0.757 0.031-1.153 0.041-0.181 0.005-0.36 0.011-0.547 0.016-0.587 0.013-1.195 0.023-1.833 0.023s-1.247-0.009-1.836-0.021c-0.187-0.004-0.365-0.011-0.547-0.016-0.396-0.011-0.783-0.025-1.153-0.041-0.187-0.008-0.373-0.017-0.553-0.027-0.363-0.019-0.709-0.041-1.044-0.064-0.141-0.011-0.291-0.019-0.427-0.029-0.445-0.035-0.867-0.072-1.252-0.113-0.091-0.009-0.168-0.020-0.255-0.029-0.296-0.033-0.576-0.068-0.832-0.104-0.113-0.016-0.217-0.032-0.324-0.048-0.209-0.032-0.405-0.065-0.583-0.099-0.085-0.015-0.172-0.031-0.249-0.047-0.049-0.011-0.083-0.021-0.128-0.031 1.541-0.336 4.789-0.664 9.183-0.664zM25.645 30.667h-23.289c-0.679-1.917-1.023-3.933-1.023-6 0-5.667 2.571-10.851 6.707-13.529 0.185-0.12 0.299-0.321 0.305-0.54s-0.095-0.425-0.271-0.556c-2.28-1.681-3.704-4.155-4.012-6.904 0.025 0.008 0.059 0.015 0.084 0.023 0.237 0.075 0.493 0.144 0.776 0.207 0.045 0.011 0.096 0.019 0.143 0.028 0.249 0.052 0.515 0.1 0.793 0.144 0.099 0.016 0.197 0.031 0.299 0.045 0.283 0.041 0.575 0.079 0.879 0.112 0.060 0.007 0.116 0.015 0.177 0.021 0.36 0.037 0.736 0.069 1.119 0.099 0.113 0.009 0.228 0.017 0.344 0.024 0.304 0.021 0.613 0.040 0.927 0.056 0.104 0.005 0.207 0.012 0.312 0.017 0.401 0.019 0.808 0.035 1.217 0.047 0.095 0.003 0.191 0.004 0.285 0.007 0.333 0.009 0.668 0.016 1.001 0.021 0.12 0.001 0.239 0.004 0.357 0.005 0.411 0.004 0.821 0.007 1.224 0.007s0.813-0.003 1.224-0.008c0.12-0.001 0.237-0.003 0.357-0.005 0.333-0.005 0.667-0.012 1-0.021 0.096-0.003 0.191-0.004 0.287-0.007 0.407-0.012 0.811-0.028 1.211-0.047 0.112-0.005 0.22-0.012 0.331-0.017 0.304-0.016 0.603-0.033 0.899-0.055 0.124-0.008 0.247-0.016 0.369-0.025 0.376-0.029 0.744-0.060 1.099-0.097 0.079-0.008 0.151-0.019 0.228-0.027 0.281-0.032 0.553-0.067 0.816-0.104 0.116-0.017 0.229-0.033 0.341-0.052 0.249-0.040 0.487-0.083 0.712-0.129 0.071-0.015 0.148-0.027 0.216-0.043 0.271-0.060 0.517-0.127 0.747-0.197 0.031-0.009 0.071-0.017 0.101-0.027-0.309 2.749-1.733 5.221-4.012 6.904-0.176 0.129-0.277 0.337-0.271 0.556 0.008 0.219 0.121 0.421 0.305 0.54 4.137 2.677 6.708 7.861 6.708 13.528 0 2.067-0.344 4.083-1.023 6zM14 16c-4.779 0-8.667 3.888-8.667 8.667 0 1.515 0.404 3.013 1.168 4.333 0.12 0.207 0.34 0.333 0.577 0.333h13.843c0.237 0 0.457-0.127 0.577-0.333 0.764-1.32 1.168-2.819 1.168-4.333 0-4.779-3.888-8.667-8.667-8.667zM17.333 28h-6.667v-1.333h6.667v1.333zM13.333 23.333c0.003-0.255 0.293-1.151 0.667-2.16 0.373 1.011 0.663 1.905 0.667 2.16 0 0.368-0.3 0.667-0.667 0.667-0.368 0-0.667-0.3-0.667-0.667zM20.525 28h-1.859v-2c0-0.368-0.299-0.667-0.667-0.667h-3.333v-0.123c0.775-0.276 1.333-1.009 1.333-1.877 0-0.805-1.059-3.459-1.383-4.252-0.205-0.501-1.031-0.501-1.235 0-0.324 0.793-1.383 3.447-1.383 4.252 0 0.868 0.559 1.601 1.333 1.877v0.123h-3.333c-0.368 0-0.667 0.299-0.667 0.667v2h-1.86c-0.529-1.032-0.807-2.177-0.807-3.333 0-4.044 3.289-7.333 7.333-7.333s7.333 3.289 7.333 7.333c0 1.155-0.279 2.3-0.808 3.333z">
      </path>
    </symbol>
    <symbol id="features-monetization-tablet" fill="none" viewBox="0 0 24 24">
      <g clip-path="url(#clip0_17_737)">
        <path d="M22.1248 23.25L19.1248 18.75V13.5C19.1248 11.5 15.3248 9.36 13.8748 8.25M15.8048 14.793L12.1568 11.87C11.9124 11.6256 11.581 11.4883 11.2353 11.4883C10.8897 11.4883 10.5582 11.6256 10.3138 11.87C10.0694 12.1144 9.93213 12.4459 9.93213 12.7915C9.93213 12.9626 9.96584 13.1321 10.0313 13.2902C10.0968 13.4483 10.1928 13.592 10.3138 13.713L13.8478 17.7V20.2C13.8478 21.381 15.5348 23.245 15.5348 23.245" stroke="#3A2535" stroke-width="1.5" stroke-linecap="round" stroke-linejoin="round"/>
        <path d="M13.836 17.978C13.7278 18.614 13.3978 19.191 12.9047 19.6069C12.4116 20.0228 11.7871 20.2506 11.142 20.25H4.608C3.88316 20.25 3.18802 19.9621 2.67548 19.4495C2.16294 18.937 1.875 18.2418 1.875 17.517V3.482C1.87474 3.12307 1.94526 2.76761 2.08252 2.43597C2.21979 2.10432 2.4211 1.803 2.67495 1.54925C2.9288 1.29549 3.2302 1.09428 3.56189 0.95714C3.89359 0.819996 4.24907 0.749607 4.608 0.750002H10.875C11.6707 0.750002 12.4337 1.06607 12.9963 1.62868C13.5589 2.19129 13.875 2.95435 13.875 3.75V13.25M1.875 15.75H7.875" stroke="#3A2535" stroke-width="1.5" stroke-linecap="round" stroke-linejoin="round"/>
      </g>
      <defs>
        <clipPath id="clip0_17_737">
          <rect width="24" height="24" fill="white"/>
        </clipPath>
      </defs>
    </symbol>
    <symbol id="arrow-down" viewBox="0 0 32 32">
      <path stroke-linejoin="round" stroke-linecap="round" stroke-miterlimit="4" stroke-width="2"
        d="M9.333 13.333l6.667 6.667 6.667-6.667"></path>
    </symbol>
    <symbol id="arrow-up" viewBox="0 0 32 32">
      <path stroke-linejoin="round" stroke-linecap="round" stroke-miterlimit="4" stroke-width="2"
        d="M22.667 18.667l-6.667-6.667-6.667 6.667"></path>
    </symbol>
    <symbol id="mail" viewBox="0 0 41 32">
      <path
        d="M38.095 0h-35.556c-0.674 0-1.32 0.268-1.796 0.744s-0.744 1.122-0.744 1.796v25.397c0 0.674 0.268 1.32 0.744 1.796s1.122 0.744 1.796 0.744h35.556c0.674 0 1.32-0.267 1.796-0.744s0.744-1.122 0.744-1.796v-25.397c0-0.674-0.268-1.32-0.744-1.796s-1.122-0.744-1.796-0.744zM36.14 27.936h-31.492l8.889-9.194-1.829-1.765-9.168 9.486v-21.994l15.784 15.708c0.476 0.473 1.12 0.738 1.79 0.738s1.315-0.265 1.79-0.738l16.191-16.102v22.222l-9.346-9.346-1.791 1.79 9.181 9.194zM4.203 2.54h31.835l-15.924 15.835-15.911-15.835z">
      </path>
    </symbol>
    <symbol id="arrow-back" viewBox="0 0 32 32">
      <path stroke-linejoin="round" stroke-linecap="round" stroke-miterlimit="4" stroke-width="3.2" d="M28 16h-23.333">
      </path>
      <path stroke-linejoin="round" stroke-linecap="round" stroke-miterlimit="4" stroke-width="3.2"
        d="M13.333 25.333l-9.333-9.333 9.333-9.333"></path>
    </symbol>
  </defs>
</svg>